# xmcd
#
# Track frame offsets:
# 150
# 23471
# 43426
# 58575
# 77329
# 97764
# 115419
# 143420
# 159230
# 180983
# 205309
#
# Disc length: 3129 seconds
#
#
# Revision: 0
# Processed by: cddbd v1.5.1PL2 Copyright (c) Steve Scherf et al.
# Submitted via: FreeRIP 2.80 
#
DISCID=7c0c370b
DTITLE=Tift Merritt - Bramble Rose
DYEAR=2002
DGENRE=Country
TTITLE0=Trouble Over Me
TTITLE1=Virgina,No One Can Warn You
TTITLE2=Neighborhood
TTITLE3=Bird Of Freedom
TTITLE4=Bramble Rose
TTITLE5=I Know Him Too
TTITLE6=Sunday
TTITLE7=Supposed To Make You Happy
TTITLE8=Diamonds Shoes
TTITLE9=Are You Still In Love With Me
TTITLE10=When I Cross Over
EXTD=
EXTT0=
EXTT1=
EXTT2=
EXTT3=
EXTT4=
EXTT5=
EXTT6=
EXTT7=
EXTT8=
EXTT9=
EXTT10=
PLAYORDER=
